<mxfile host="app.diagrams.net" modified="2023-04-09T21:31:30.397Z" agent="Mozilla/5.0 (Windows NT 10.0; Win64; x64) AppleWebKit/537.36 (KHTML, like Gecko) Chrome/111.0.0.0 Safari/537.36" etag="iyfHn-2o7NO-4kmJimg7" version="21.1.5" type="device">
  <diagram name="PÃ¡gina-1" id="pAywN0AhMdJmM21WIdU3">
    <mxGraphModel dx="712" dy="778" grid="1" gridSize="10" guides="1" tooltips="1" connect="1" arrows="1" fold="1" page="1" pageScale="1" pageWidth="827" pageHeight="1169" math="0" shadow="0">
      <root>
        <mxCell id="0" />
        <mxCell id="1" parent="0" />
        <mxCell id="ZtMjr5rwO3pDXKAG4YFc-2" value="" style="shape=image;html=1;verticalAlign=top;verticalLabelPosition=bottom;labelBackgroundColor=#ffffff;imageAspect=0;aspect=fixed;image=https://cdn1.iconfinder.com/data/icons/science-technology-outline-24-px/24/Android_android_robot_operative_system_robot_technology-128.png" vertex="1" parent="1">
          <mxGeometry x="512" y="79" width="84" height="84" as="geometry" />
        </mxCell>
        <mxCell id="ZtMjr5rwO3pDXKAG4YFc-3" value="" style="verticalLabelPosition=bottom;sketch=0;aspect=fixed;html=1;verticalAlign=top;strokeColor=none;align=center;outlineConnect=0;shape=mxgraph.citrix.process;" vertex="1" parent="1">
          <mxGeometry x="339" y="90" width="52" height="62" as="geometry" />
        </mxCell>
        <mxCell id="ZtMjr5rwO3pDXKAG4YFc-27" style="edgeStyle=orthogonalEdgeStyle;rounded=0;orthogonalLoop=1;jettySize=auto;html=1;entryX=0;entryY=0.5;entryDx=0;entryDy=0;entryPerimeter=0;" edge="1" parent="1" source="ZtMjr5rwO3pDXKAG4YFc-4" target="ZtMjr5rwO3pDXKAG4YFc-24">
          <mxGeometry relative="1" as="geometry" />
        </mxCell>
        <mxCell id="ZtMjr5rwO3pDXKAG4YFc-36" style="edgeStyle=orthogonalEdgeStyle;rounded=0;orthogonalLoop=1;jettySize=auto;html=1;entryX=0;entryY=0.5;entryDx=0;entryDy=0;entryPerimeter=0;" edge="1" parent="1" source="ZtMjr5rwO3pDXKAG4YFc-4" target="ZtMjr5rwO3pDXKAG4YFc-33">
          <mxGeometry relative="1" as="geometry">
            <Array as="points">
              <mxPoint x="369" y="320" />
              <mxPoint x="620" y="320" />
              <mxPoint x="620" y="254" />
              <mxPoint x="682" y="254" />
            </Array>
          </mxGeometry>
        </mxCell>
        <mxCell id="ZtMjr5rwO3pDXKAG4YFc-4" value="Controlador" style="text;html=1;align=center;verticalAlign=middle;resizable=0;points=[];autosize=1;strokeColor=none;fillColor=none;" vertex="1" parent="1">
          <mxGeometry x="324" y="155" width="90" height="30" as="geometry" />
        </mxCell>
        <mxCell id="ZtMjr5rwO3pDXKAG4YFc-29" style="edgeStyle=orthogonalEdgeStyle;rounded=0;orthogonalLoop=1;jettySize=auto;html=1;entryX=1;entryY=0.5;entryDx=0;entryDy=0;entryPerimeter=0;" edge="1" parent="1" source="ZtMjr5rwO3pDXKAG4YFc-7" target="ZtMjr5rwO3pDXKAG4YFc-25">
          <mxGeometry relative="1" as="geometry">
            <Array as="points">
              <mxPoint x="547" y="354" />
            </Array>
          </mxGeometry>
        </mxCell>
        <mxCell id="ZtMjr5rwO3pDXKAG4YFc-7" value="Robots" style="text;html=1;align=center;verticalAlign=middle;resizable=0;points=[];autosize=1;strokeColor=none;fillColor=none;" vertex="1" parent="1">
          <mxGeometry x="524" y="155" width="60" height="30" as="geometry" />
        </mxCell>
        <mxCell id="ZtMjr5rwO3pDXKAG4YFc-8" value="" style="strokeWidth=2;html=1;shape=mxgraph.lean_mapping.truck_shipment;" vertex="1" parent="1">
          <mxGeometry x="705" y="82.5" width="60" height="72" as="geometry" />
        </mxCell>
        <mxCell id="ZtMjr5rwO3pDXKAG4YFc-38" style="edgeStyle=orthogonalEdgeStyle;rounded=0;orthogonalLoop=1;jettySize=auto;html=1;entryX=1;entryY=0.5;entryDx=0;entryDy=0;entryPerimeter=0;" edge="1" parent="1" source="ZtMjr5rwO3pDXKAG4YFc-10" target="ZtMjr5rwO3pDXKAG4YFc-34">
          <mxGeometry relative="1" as="geometry">
            <Array as="points">
              <mxPoint x="780" y="170" />
              <mxPoint x="780" y="354" />
            </Array>
          </mxGeometry>
        </mxCell>
        <mxCell id="ZtMjr5rwO3pDXKAG4YFc-10" value="Delivery" style="text;html=1;align=center;verticalAlign=middle;resizable=0;points=[];autosize=1;strokeColor=none;fillColor=none;" vertex="1" parent="1">
          <mxGeometry x="700" y="154.5" width="70" height="30" as="geometry" />
        </mxCell>
        <mxCell id="ZtMjr5rwO3pDXKAG4YFc-11" value="" style="outlineConnect=0;dashed=0;verticalLabelPosition=bottom;verticalAlign=top;align=center;html=1;shape=mxgraph.aws3.queue;fillColor=#D9A741;gradientColor=none;" vertex="1" parent="1">
          <mxGeometry x="220" y="237" width="73.5" height="48" as="geometry" />
        </mxCell>
        <mxCell id="ZtMjr5rwO3pDXKAG4YFc-12" value="Clientes" style="text;html=1;align=center;verticalAlign=middle;resizable=0;points=[];autosize=1;strokeColor=none;fillColor=none;" vertex="1" parent="1">
          <mxGeometry x="220" y="288" width="70" height="30" as="geometry" />
        </mxCell>
        <mxCell id="ZtMjr5rwO3pDXKAG4YFc-20" value="" style="shape=actor;whiteSpace=wrap;html=1;" vertex="1" parent="1">
          <mxGeometry x="140" y="83.5" width="40" height="60" as="geometry" />
        </mxCell>
        <mxCell id="ZtMjr5rwO3pDXKAG4YFc-21" value="Cliente" style="text;html=1;align=center;verticalAlign=middle;resizable=0;points=[];autosize=1;strokeColor=none;fillColor=none;" vertex="1" parent="1">
          <mxGeometry x="130" y="143.5" width="60" height="30" as="geometry" />
        </mxCell>
        <mxCell id="ZtMjr5rwO3pDXKAG4YFc-28" style="edgeStyle=orthogonalEdgeStyle;rounded=0;orthogonalLoop=1;jettySize=auto;html=1;exitX=1;exitY=0.5;exitDx=0;exitDy=0;exitPerimeter=0;entryX=0.883;entryY=1.117;entryDx=0;entryDy=0;entryPerimeter=0;" edge="1" parent="1" source="ZtMjr5rwO3pDXKAG4YFc-24" target="ZtMjr5rwO3pDXKAG4YFc-7">
          <mxGeometry relative="1" as="geometry" />
        </mxCell>
        <mxCell id="ZtMjr5rwO3pDXKAG4YFc-24" value="Robots" style="outlineConnect=0;dashed=0;verticalLabelPosition=bottom;verticalAlign=top;align=center;html=1;shape=mxgraph.aws3.queue;fillColor=#D9A741;gradientColor=none;" vertex="1" parent="1">
          <mxGeometry x="460" y="240" width="73.5" height="48" as="geometry" />
        </mxCell>
        <mxCell id="ZtMjr5rwO3pDXKAG4YFc-30" style="edgeStyle=orthogonalEdgeStyle;rounded=0;orthogonalLoop=1;jettySize=auto;html=1;exitX=0;exitY=0.5;exitDx=0;exitDy=0;exitPerimeter=0;entryX=0.844;entryY=0.833;entryDx=0;entryDy=0;entryPerimeter=0;" edge="1" parent="1" source="ZtMjr5rwO3pDXKAG4YFc-25" target="ZtMjr5rwO3pDXKAG4YFc-4">
          <mxGeometry relative="1" as="geometry" />
        </mxCell>
        <mxCell id="ZtMjr5rwO3pDXKAG4YFc-25" value="Robots - respuesta" style="outlineConnect=0;dashed=0;verticalLabelPosition=bottom;verticalAlign=top;align=center;html=1;shape=mxgraph.aws3.queue;fillColor=#D9A741;gradientColor=none;" vertex="1" parent="1">
          <mxGeometry x="453.25" y="330" width="73.5" height="48" as="geometry" />
        </mxCell>
        <mxCell id="ZtMjr5rwO3pDXKAG4YFc-37" style="edgeStyle=orthogonalEdgeStyle;rounded=0;orthogonalLoop=1;jettySize=auto;html=1;entryX=0.257;entryY=1.017;entryDx=0;entryDy=0;entryPerimeter=0;" edge="1" parent="1" source="ZtMjr5rwO3pDXKAG4YFc-33" target="ZtMjr5rwO3pDXKAG4YFc-10">
          <mxGeometry relative="1" as="geometry" />
        </mxCell>
        <mxCell id="ZtMjr5rwO3pDXKAG4YFc-33" value="Delivery" style="outlineConnect=0;dashed=0;verticalLabelPosition=bottom;verticalAlign=top;align=center;html=1;shape=mxgraph.aws3.queue;fillColor=#D9A741;gradientColor=none;" vertex="1" parent="1">
          <mxGeometry x="682" y="231" width="73.5" height="48" as="geometry" />
        </mxCell>
        <mxCell id="ZtMjr5rwO3pDXKAG4YFc-39" style="edgeStyle=orthogonalEdgeStyle;rounded=0;orthogonalLoop=1;jettySize=auto;html=1;exitX=0;exitY=0.5;exitDx=0;exitDy=0;exitPerimeter=0;entryX=0.633;entryY=1.2;entryDx=0;entryDy=0;entryPerimeter=0;" edge="1" parent="1" source="ZtMjr5rwO3pDXKAG4YFc-34" target="ZtMjr5rwO3pDXKAG4YFc-4">
          <mxGeometry relative="1" as="geometry">
            <Array as="points">
              <mxPoint x="640" y="354" />
              <mxPoint x="640" y="410" />
              <mxPoint x="381" y="410" />
            </Array>
          </mxGeometry>
        </mxCell>
        <mxCell id="ZtMjr5rwO3pDXKAG4YFc-34" value="Delivery - respuesta" style="outlineConnect=0;dashed=0;verticalLabelPosition=bottom;verticalAlign=top;align=center;html=1;shape=mxgraph.aws3.queue;fillColor=#D9A741;gradientColor=none;" vertex="1" parent="1">
          <mxGeometry x="691.5" y="330" width="73.5" height="48" as="geometry" />
        </mxCell>
        <mxCell id="ZtMjr5rwO3pDXKAG4YFc-42" value="" style="endArrow=classic;startArrow=classic;html=1;rounded=0;exitX=0;exitY=0.5;exitDx=0;exitDy=0;exitPerimeter=0;" edge="1" parent="1" source="ZtMjr5rwO3pDXKAG4YFc-11" target="ZtMjr5rwO3pDXKAG4YFc-21">
          <mxGeometry width="50" height="50" relative="1" as="geometry">
            <mxPoint x="180" y="270" as="sourcePoint" />
            <mxPoint x="230" y="220" as="targetPoint" />
            <Array as="points">
              <mxPoint x="160" y="261" />
            </Array>
          </mxGeometry>
        </mxCell>
        <mxCell id="ZtMjr5rwO3pDXKAG4YFc-45" value="" style="endArrow=classic;startArrow=classic;html=1;rounded=0;exitX=0.952;exitY=0.687;exitDx=0;exitDy=0;exitPerimeter=0;" edge="1" parent="1" source="ZtMjr5rwO3pDXKAG4YFc-11" target="ZtMjr5rwO3pDXKAG4YFc-4">
          <mxGeometry width="50" height="50" relative="1" as="geometry">
            <mxPoint x="310" y="240" as="sourcePoint" />
            <mxPoint x="360" y="190" as="targetPoint" />
            <Array as="points">
              <mxPoint x="330" y="270" />
              <mxPoint x="330" y="220" />
              <mxPoint x="300" y="220" />
              <mxPoint x="300" y="170" />
            </Array>
          </mxGeometry>
        </mxCell>
      </root>
    </mxGraphModel>
  </diagram>
</mxfile>
